<?xml version="1.0" standalone="no"?>
<!DOCTYPE svg PUBLIC "-//W3C//DTD SVG 20010904//EN"
 "http://www.w3.org/TR/2001/REC-SVG-20010904/DTD/svg10.dtd">
<svg version="1.0" xmlns="http://www.w3.org/2000/svg"
 width="800.000000pt" height="800.000000pt" viewBox="0 0 800.000000 800.000000"
 preserveAspectRatio="xMidYMid meet">
<metadata>
Created by potrace 1.14, written by Peter Selinger 2001-2017
</metadata>
<g transform="translate(0.000000,800.000000) scale(0.100000,-0.100000)"
fill="#000000" stroke="none">
<path d="M5280 7715 c-10 -12 -10 -15 0 -15 8 0 11 -3 7 -6 -3 -4 -1 -18 6
-33 16 -33 14 -139 -3 -216 -7 -33 -13 -66 -13 -72 0 -7 -4 -13 -8 -13 -5 0
-12 -18 -20 -50 0 -3 -14 -13 -30 -23 -16 -11 -29 -22 -29 -25 0 -12 -54 -12
-105 0 -27 7 -52 12 -55 13 -10 1 -95 58 -101 68 -4 5 -12 6 -19 2 -8 -5 -11
-4 -7 2 11 17 -152 120 -167 106 -3 -4 -6 -1 -6 5 0 7 -13 12 -30 12 -40 0
-112 -29 -103 -43 3 -6 1 -7 -6 -3 -7 5 -21 -2 -34 -16 -39 -40 -76 -95 -70
-102 4 -3 1 -6 -6 -6 -7 0 -9 -4 -6 -10 3 -5 2 -10 -3 -10 -12 0 -34 -49 -27
-60 3 -5 1 -10 -5 -12 -5 -1 -12 -26 -14 -53 -5 -52 -31 -141 -48 -162 -5 -7
-6 -18 -2 -24 4 -7 3 -9 -3 -6 -10 6 -50 -52 -45 -66 1 -5 -2 -6 -8 -2 -5 3
-10 1 -10 -6 0 -8 -4 -8 -15 1 -22 18 -19 34 15 70 17 18 33 44 37 58 7 30
-12 135 -26 140 -6 2 -8 9 -5 15 2 7 -7 30 -21 52 -13 22 -25 36 -25 31 0 -5
-9 3 -21 18 -11 14 -25 24 -30 21 -5 -4 -9 -2 -9 3 0 5 -30 24 -67 43 -38 19
-71 37 -74 42 -9 13 -81 18 -94 7 -13 -10 -41 -107 -37 -122 1 -5 -2 -8 -7 -8
-5 0 -12 -9 -16 -19 -8 -26 -82 -39 -116 -20 -30 16 -52 40 -119 129 -14 18
-31 39 -37 46 -7 7 -13 17 -13 23 0 6 -10 16 -22 22 -13 7 -29 20 -36 31 -7
10 -18 18 -23 18 -5 0 -22 12 -36 28 -14 15 -29 26 -34 24 -5 -1 -9 2 -9 7 0
17 -99 83 -112 75 -7 -4 -10 -4 -6 1 17 18 -104 79 -166 84 -23 2 -36 -1 -32
-7 4 -6 -3 -8 -16 -4 -14 3 -19 1 -14 -6 5 -8 2 -10 -8 -6 -9 3 -24 3 -33 -2
-10 -4 -20 -8 -23 -8 -16 -3 -49 -34 -42 -40 4 -4 2 -7 -3 -6 -43 9 -70 -33
-37 -58 14 -11 19 -10 32 5 8 10 30 29 48 42 27 19 39 21 75 15 23 -4 45 -7
50 -6 4 1 7 -2 7 -8 0 -5 7 -10 15 -10 35 0 143 -96 192 -172 15 -23 31 -45
35 -48 11 -8 51 -103 55 -130 2 -14 6 -32 10 -40 3 -8 7 -25 9 -36 3 -26 38
-96 62 -126 9 -11 26 -32 37 -45 30 -37 102 -43 152 -13 21 12 35 19 31 14 -5
-4 2 -12 15 -18 30 -15 57 -74 64 -141 5 -47 3 -59 -13 -73 -24 -22 -97 -27
-155 -12 -44 12 -113 63 -101 74 3 4 -4 9 -16 13 -12 3 -20 8 -18 12 3 4 -10
25 -27 47 -18 23 -43 56 -57 74 -86 114 -114 146 -161 181 -28 21 -56 36 -60
33 -5 -3 -9 -1 -9 4 0 12 -59 34 -71 26 -5 -3 -9 -1 -9 4 0 13 -50 33 -62 26
-7 -5 -8 -2 -3 6 6 10 1 12 -19 8 -14 -3 -26 -2 -26 2 0 5 -30 13 -67 19 -38
7 -84 14 -103 18 -97 16 -180 7 -164 -19 5 -8 1 -9 -10 -5 -15 6 -17 0 -13
-66 5 -80 14 -110 30 -100 6 3 7 1 3 -6 -9 -13 18 -43 29 -33 5 4 5 2 1 -5 -3
-6 3 -18 16 -27 34 -24 13 -31 -25 -7 -19 11 -38 17 -43 13 -5 -4 -6 -3 -1 2
11 14 -71 49 -104 44 -16 -3 -30 -1 -31 3 -2 4 -14 10 -28 12 -14 3 -58 10
-98 17 -75 14 -143 5 -197 -23 -11 -6 -28 -12 -38 -14 -10 -2 -25 -10 -33 -17
-8 -8 -24 -18 -37 -22 -28 -9 -59 -43 -50 -57 3 -6 1 -7 -5 -3 -15 9 -35 -41
-28 -69 3 -11 28 -55 56 -97 27 -43 50 -82 50 -88 0 -5 5 -10 12 -10 6 0 9 -3
6 -6 -4 -3 1 -26 9 -51 15 -43 15 -47 -2 -60 -11 -7 -33 -13 -49 -14 -17 0
-42 -3 -56 -5 -14 -2 -89 -6 -167 -8 -116 -4 -142 -2 -147 10 -3 8 -16 14 -28
14 -21 0 -66 26 -144 82 -105 76 -125 89 -133 83 -5 -3 -11 0 -13 6 -4 11 -27
13 -91 9 -17 -2 -37 -14 -53 -34 -14 -17 -32 -39 -40 -48 -21 -27 -45 -89 -37
-101 3 -6 1 -7 -5 -3 -7 4 -12 1 -13 -6 -1 -25 -7 -43 -37 -115 -17 -39 -28
-74 -24 -77 3 -3 0 -6 -7 -6 -8 0 -11 -7 -7 -15 3 -8 1 -15 -5 -15 -7 0 -8
-19 -5 -52 7 -55 9 -61 31 -64 11 -2 12 3 4 23 -8 23 -8 24 6 13 18 -15 18
-14 6 27 -6 20 -6 35 0 38 5 4 9 17 9 31 0 14 7 38 15 53 8 16 12 31 10 35 -3
3 -2 4 2 1 3 -3 11 -1 17 4 17 13 55 20 58 10 2 -5 46 -11 99 -13 52 -2 105
-9 117 -15 12 -6 22 -8 22 -4 0 4 5 0 11 -10 6 -9 14 -15 19 -12 4 3 7 -2 6
-11 -2 -15 -96 -60 -96 -47 0 3 -11 -2 -25 -11 -13 -9 -29 -16 -34 -16 -5 0
-22 -5 -38 -12 -15 -6 -35 -12 -43 -14 -63 -13 -149 -82 -169 -136 -9 -25 -8
-140 1 -175 4 -11 14 -35 22 -52 9 -17 16 -33 16 -36 -1 -21 1 -25 10 -20 5 3
7 0 5 -8 -3 -7 6 -40 21 -73 15 -32 32 -79 39 -104 11 -45 11 -45 -22 -71 -18
-15 -31 -28 -30 -30 1 -2 0 -3 -1 -2 -2 1 -51 -23 -109 -53 -58 -30 -118 -56
-134 -59 -15 -3 -41 -10 -56 -17 -59 -24 -181 -22 -243 4 -14 5 -38 16 -53 24
-16 8 -34 11 -39 7 -6 -3 -8 -1 -5 4 4 6 -4 18 -18 27 -14 9 -25 13 -25 9 -1
-5 -8 5 -16 20 -8 15 -19 25 -24 22 -6 -3 -7 1 -4 9 6 17 -11 23 -20 8 -6 -11
34 -126 45 -130 4 -2 5 -10 2 -18 -3 -8 -1 -14 5 -14 6 0 13 -13 17 -29 3 -15
15 -38 25 -49 11 -12 20 -24 20 -26 0 -8 29 -43 62 -77 30 -30 77 -55 121 -62
37 -6 109 12 100 26 -3 5 -2 7 4 4 13 -8 96 17 86 27 -4 4 0 4 9 1 9 -4 26 -1
38 5 12 6 24 9 27 7 4 -5 -15 -46 -27 -57 -3 -3 -21 -25 -40 -50 -19 -25 -41
-50 -49 -56 -8 -6 -11 -16 -7 -22 4 -7 2 -12 -5 -12 -12 0 -6 -71 8 -94 4 -6
8 -18 8 -26 1 -31 17 -90 24 -86 3 2 4 -23 3 -56 -2 -33 1 -65 7 -71 7 -7 6
-21 -4 -45 -8 -19 -12 -38 -9 -43 3 -5 1 -8 -4 -7 -5 2 -29 -18 -53 -43 -25
-25 -60 -54 -79 -65 -19 -10 -43 -26 -54 -34 -10 -8 -20 -14 -22 -12 -3 2 -30
-9 -62 -23 -109 -51 -137 -63 -197 -81 -33 -10 -71 -19 -85 -19 -20 0 -25 -5
-25 -25 0 -19 5 -25 22 -24 12 0 20 -3 17 -8 -3 -4 5 -8 18 -9 13 0 32 -2 43
-5 20 -4 103 -7 138 -4 9 1 17 4 17 8 0 4 12 8 27 9 14 0 30 8 35 17 5 9 17
16 26 16 27 0 133 46 124 54 -4 5 0 6 8 5 21 -5 102 29 96 40 -3 4 6 6 19 3
13 -2 38 1 56 7 46 16 45 15 -173 -195 -10 -9 -15 -21 -12 -25 3 -5 1 -9 -5
-9 -33 0 -99 -151 -100 -230 -1 -51 27 -142 41 -134 6 4 8 3 5 -3 -7 -10 32
-75 75 -127 26 -30 48 -29 48 3 0 27 46 116 75 145 14 14 23 26 19 26 -4 0 11
14 32 31 21 17 41 34 44 38 9 12 74 55 90 59 51 12 80 13 80 3 0 -7 -4 -10 -8
-7 -14 8 -85 -71 -77 -85 5 -8 4 -10 -4 -5 -20 13 -53 -80 -66 -185 -6 -44 -3
-50 54 -135 33 -49 76 -106 96 -128 19 -21 38 -49 41 -62 3 -13 9 -24 13 -24
3 0 6 -29 5 -64 -1 -67 -12 -88 -49 -94 -52 -9 -75 -15 -75 -21 0 -6 -12 -8
-128 -13 -42 -2 -74 1 -76 7 -2 6 -8 6 -15 -1 -6 -6 -9 -17 -6 -25 6 -16 73
-49 98 -49 9 0 18 -4 21 -9 12 -19 115 -23 170 -7 77 23 124 72 165 171 40 96
59 122 57 76 -1 -17 -5 -31 -10 -31 -12 0 -1 -153 12 -158 6 -2 9 -9 6 -17
-14 -34 48 -101 100 -109 53 -9 103 7 170 54 l57 40 30 -17 c58 -35 82 -97 65
-175 -7 -30 -17 -43 -55 -65 -25 -15 -49 -27 -52 -26 -4 1 -51 -9 -105 -22
-103 -26 -183 -32 -200 -15 -5 5 -18 11 -29 13 -11 1 -26 6 -33 11 -20 12 -33
-6 -18 -26 13 -18 106 -62 106 -51 0 4 6 0 12 -9 14 -17 106 -50 119 -43 4 3
10 1 14 -5 4 -6 11 -8 16 -5 5 4 9 1 9 -4 0 -6 11 -11 24 -11 13 0 26 -4 28
-10 5 -15 112 -15 148 0 16 7 27 17 23 23 -3 5 -2 7 4 4 5 -3 26 12 46 34 47
51 48 31 2 -33 -20 -27 -33 -53 -30 -58 3 -4 1 -10 -5 -12 -25 -8 -5 -178 21
-178 6 0 8 -4 5 -8 -8 -14 24 -53 37 -46 7 4 9 4 5 -1 -4 -4 0 -15 10 -24 10
-9 21 -24 25 -33 3 -10 14 -18 23 -18 11 0 14 5 10 16 -4 9 -2 22 4 29 5 6 11
20 13 31 6 28 23 65 46 99 l21 30 1 -25 c0 -14 1 -72 1 -130 -1 -96 2 -110 28
-165 30 -61 48 -84 114 -143 37 -34 47 -35 53 -7 5 24 9 39 18 58 4 9 5 30 3
47 -2 16 -1 27 3 24 4 -2 7 11 7 30 0 33 21 88 22 57 0 -15 99 -152 132 -184
11 -10 26 -16 34 -13 8 3 13 2 10 -3 -7 -10 22 -23 34 -16 5 3 12 -4 15 -16 5
-14 13 -19 26 -16 12 3 20 -2 24 -14 4 -11 10 -17 14 -15 4 3 8 0 8 -7 0 -7 8
-29 17 -50 11 -26 13 -36 4 -35 -14 3 -22 -26 -14 -49 5 -12 9 -13 21 -3 8 7
12 16 9 21 -3 5 2 6 10 3 9 -3 16 -12 16 -20 0 -8 4 -14 8 -14 5 0 13 -10 19
-23 28 -61 207 -275 225 -269 5 1 7 -1 4 -6 -3 -5 12 -24 32 -44 20 -19 61
-60 91 -91 29 -31 58 -54 64 -50 5 3 8 2 5 -3 -3 -5 0 -15 8 -22 8 -7 14 -10
14 -7 0 3 12 -6 27 -20 15 -14 36 -25 45 -25 10 0 17 -4 15 -9 -1 -4 8 -17 20
-27 22 -20 44 -72 25 -60 -14 8 -23 -7 -13 -22 5 -9 14 -5 30 12 23 24 23 24
42 5 11 -11 25 -17 31 -13 7 4 8 3 4 -4 -7 -11 51 -48 67 -44 5 1 6 -2 2 -8
-3 -5 2 -13 11 -17 23 -8 108 -93 95 -93 -14 0 -14 -27 -1 -35 6 -4 17 -2 25
5 10 9 21 3 49 -25 20 -20 36 -33 36 -30 0 4 7 0 15 -9 8 -8 15 -19 15 -24 0
-6 7 -12 15 -16 8 -3 15 -16 15 -29 0 -16 12 -34 35 -52 20 -14 47 -44 61 -66
14 -23 29 -37 36 -33 6 4 8 3 5 -3 -3 -5 12 -26 33 -46 22 -20 40 -40 40 -45
0 -10 91 -68 102 -64 4 1 8 -2 8 -6 0 -12 67 -47 128 -67 28 -9 52 -20 52 -24
0 -5 25 -11 55 -14 51 -5 92 -27 78 -41 -4 -3 1 -6 11 -6 11 0 16 7 14 18 -3
18 0 18 65 7 23 -4 37 -11 37 -21 0 -8 7 -17 15 -20 18 -7 48 14 42 30 -3 7
14 12 42 14 71 5 89 10 164 47 15 7 25 9 21 4 -5 -9 41 22 176 118 14 10 32
18 40 18 8 0 15 9 15 20 0 11 12 33 27 49 15 16 25 33 22 38 -3 4 0 7 8 6 7
-2 12 5 12 14 -1 10 2 16 6 13 5 -3 10 1 13 7 3 10 9 8 24 -5 11 -9 23 -14 26
-10 4 3 7 -1 7 -10 0 -9 5 -17 10 -17 15 0 12 26 -5 43 -30 31 -29 64 5 107
17 22 29 40 26 40 -2 0 9 15 25 33 25 27 31 29 39 17 5 -8 10 -11 10 -7 0 5 7
1 16 -7 18 -18 34 -21 34 -6 0 6 -3 10 -8 10 -4 0 -13 9 -20 21 -12 18 -9 25
23 60 20 23 33 45 29 52 -4 7 -4 9 1 5 4 -4 14 0 20 9 13 18 75 27 75 12 0 -5
5 -9 10 -9 17 0 11 21 -11 39 l-22 17 32 35 c17 19 46 49 64 68 17 19 26 31
20 27 -7 -4 5 20 27 53 22 33 40 65 40 71 0 5 7 10 16 10 13 0 14 3 5 14 -9
10 -9 16 -1 21 6 4 9 13 6 21 -3 8 -1 14 3 14 11 0 33 60 23 60 -4 0 -2 4 4 8
17 11 66 141 58 154 -4 6 -3 8 4 4 6 -4 13 7 17 26 3 18 10 44 15 58 4 14 14
46 21 72 7 27 17 48 21 48 4 0 8 -4 8 -9 0 -8 52 -31 71 -31 20 0 7 29 -26 59
-27 24 -34 37 -29 53 3 11 7 27 8 34 1 7 5 17 9 20 4 4 7 18 7 30 0 22 1 22
28 8 36 -19 92 -19 92 0 0 8 -21 25 -46 37 -38 19 -44 27 -38 44 4 11 8 54 8
95 1 41 4 77 8 80 4 3 8 21 10 39 l2 33 22 -25 c12 -14 24 -32 27 -39 2 -7 8
-10 12 -6 10 10 -17 78 -28 71 -6 -3 -7 -1 -3 5 3 6 2 21 -3 34 -11 31 -3 45
31 53 21 5 29 2 38 -15 9 -17 15 -19 23 -11 9 9 8 14 -3 21 -11 7 -7 12 20 24
39 16 42 15 44 -15 1 -26 36 -51 43 -31 3 6 9 10 14 6 5 -3 9 -1 9 4 0 5 9 12
21 15 13 4 18 10 13 18 -4 8 -3 10 5 5 6 -4 14 -1 17 8 3 8 14 18 25 21 10 4
19 11 19 17 0 6 17 34 38 62 21 28 49 67 62 87 l24 36 36 -48 c33 -44 90 -98
90 -85 0 3 9 -3 20 -14 11 -11 25 -20 30 -20 14 0 12 24 -2 39 -11 10 -10 11
5 6 9 -4 17 -3 17 3 0 9 -19 19 -49 26 -11 3 -66 63 -77 85 -7 13 -10 39 -7
60 3 20 6 46 7 59 1 12 4 22 9 22 4 0 7 11 7 24 0 14 4 27 9 30 5 3 12 18 15
32 4 15 23 47 42 72 19 25 33 51 30 58 -3 7 0 14 5 16 6 2 14 19 18 38 l7 35
26 -48 c22 -39 26 -56 23 -105 -4 -55 -3 -59 17 -58 11 0 26 9 32 20 6 10 25
34 43 53 32 35 48 71 56 128 3 17 10 59 17 95 6 36 12 74 14 84 4 30 23 30 41
2 10 -14 22 -23 28 -19 5 3 7 1 4 -4 -6 -10 25 -59 46 -74 5 -3 8 -9 7 -13 -3
-15 25 -64 34 -59 5 3 6 1 2 -5 -7 -12 10 -52 27 -64 11 -7 39 16 36 29 -1 4
3 21 9 36 7 16 10 33 6 38 -3 5 -1 9 4 9 13 0 22 37 29 124 7 73 7 111 1 254
-2 51 1 82 7 82 12 0 50 -25 79 -52 10 -9 24 -15 29 -11 6 4 7 1 3 -6 -5 -7
-1 -20 9 -31 15 -17 22 -36 24 -66 1 -18 33 -26 47 -12 19 20 75 135 80 165 3
15 8 31 11 36 12 19 1 196 -16 265 l-18 72 21 5 c12 2 55 6 96 8 82 5 160 32
160 54 0 8 -5 11 -12 7 -8 -5 -9 -2 -5 9 7 20 -11 33 -25 19 -6 -6 -20 -7 -32
-3 -11 4 -57 6 -101 4 -44 -1 -100 -3 -125 -4 -53 -2 -114 27 -154 71 -14 17
-23 30 -20 30 4 0 0 8 -8 18 -24 26 -68 115 -68 134 0 10 -4 18 -10 18 -5 0
-9 3 -8 8 4 15 -14 72 -23 72 -5 0 -9 9 -9 20 0 11 -13 47 -29 80 -25 52 -27
62 -15 74 20 21 51 8 75 -30 11 -19 28 -42 37 -51 10 -9 16 -19 14 -22 -7 -14
20 -91 32 -91 7 0 26 33 42 72 27 67 29 83 28 192 0 75 -5 121 -11 123 -6 2
-9 12 -6 22 3 11 0 28 -6 39 -5 10 -13 34 -16 53 -7 41 -59 146 -79 161 -11 7
10 38 26 38 5 0 34 11 63 25 30 13 66 27 80 31 41 10 85 85 64 110 -9 11 -8
14 1 14 18 0 7 10 -16 14 -11 3 -40 10 -65 17 -40 11 -56 10 -125 -7 -73 -18
-117 -19 -183 -3 -18 5 -46 26 -88 65 -18 17 -35 30 -38 28 -3 -2 -3 -1 -1 2
3 3 -6 24 -20 45 -13 21 -24 43 -24 49 0 5 -4 10 -8 10 -5 0 -9 6 -9 13 -1 40
-26 126 -35 121 -7 -4 -8 -2 -4 4 7 12 -19 72 -36 83 -5 3 0 9 11 12 12 3 21
1 21 -4 0 -5 8 -9 18 -9 21 0 73 -72 81 -114 9 -39 43 -44 46 -6 2 24 -9 77
-22 110 -3 8 -5 25 -4 37 3 27 -24 119 -44 149 -17 27 -65 54 -104 59 -14 2
-26 4 -26 5 0 1 -11 3 -24 6 -13 2 -39 14 -57 25 -19 11 -38 18 -44 14 -5 -3
-10 -1 -10 5 0 6 -4 8 -10 5 -6 -3 -7 1 -4 10 8 19 39 27 112 28 110 1 168
-25 191 -86 6 -15 17 -27 25 -27 19 0 28 53 11 63 -8 4 -12 14 -9 21 9 24 -47
148 -93 208 -44 58 -100 108 -121 108 -6 0 -12 4 -14 9 -6 17 -128 71 -160 71
l-32 0 29 23 c16 12 49 42 73 66 l43 43 -5 114 c-5 116 -22 169 -51 158 -11
-5 -30 -70 -28 -101 0 -7 -3 -10 -8 -7 -5 3 -9 1 -9 -5 0 -5 -29 -39 -65 -75
-36 -36 -65 -63 -65 -60 0 3 -12 -3 -27 -14 -27 -19 -92 -35 -143 -35 -92 -1
-199 40 -269 102 -25 22 -49 37 -54 34 -6 -4 -7 -1 -3 6 10 15 -23 53 -37 44
-5 -3 -7 -1 -4 4 10 15 -52 74 -106 102 -25 13 -44 28 -41 32 2 5 28 16 57 25
49 15 55 15 92 -1 22 -10 43 -17 47 -17 4 1 5 -4 2 -12 -7 -18 27 -30 38 -14
11 17 10 58 -1 58 -5 0 -12 11 -15 24 -3 14 -12 31 -19 38 -6 8 -17 23 -24 33
-6 11 -16 19 -23 17 -6 -1 -9 2 -6 7 15 23 -109 122 -134 106 -5 -3 -10 -2
-10 3 0 13 -84 34 -104 26 -9 -3 -16 -1 -16 5 0 12 -83 6 -105 -7 -5 -3 -4 2
3 11 8 9 11 21 8 26 -4 5 -2 12 4 16 14 8 13 165 -1 165 -5 0 -7 4 -4 10 7 12
-22 70 -35 70 -6 0 -10 5 -10 10 0 6 -13 29 -30 52 -16 22 -30 47 -30 55 0 8
-5 11 -12 7 -7 -5 -8 -3 -4 5 8 12 -19 51 -34 51 -4 0 -13 -7 -20 -15z"/>
</g>
</svg>
